<?xml version="1.0" encoding="utf-8"?>
<!-- Generator: Adobe Illustrator 15.0.2, SVG Export Plug-In . SVG Version: 6.00 Build 0)  -->
<svg version="1.2" baseProfile="tiny" id="Layer_1" xmlns="http://www.w3.org/2000/svg" xmlns:xlink="http://www.w3.org/1999/xlink"
	 x="0px" y="0px" width="100px" height="100px" viewBox="0 0 100 100" xml:space="preserve">
<rect fill="#8DB6FD" width="100" height="100"/>
<g>
	<path fill-rule="evenodd" fill="#FFFFFF" d="M39.916,28.009c0.288-1.634,6.563,5.768,9.844,8.75
		c3.48-2.873,11.546-10.163,12.031-8.75c1.944,0.023-4.794,6.541-8.75,10.938c5.34,0.127,14.894,0.023,15.313,1.094
		c0,7.656,0,15.314,0,22.97c-9.368,0.153-24.394,0.153-35,0c0-7.656,0-15.314,0-22.97c0.552-0.961,9.174-1.033,14.219-1.094
		C46.479,37.422,38.435,28.474,39.916,28.009z M36.635,60.823c8.02,0,16.04,0,24.063,0c0-6.2,0-12.397,0-18.595
		c-8.022,0-16.042,0-24.063,0C36.635,48.426,36.635,54.623,36.635,60.823z M62.885,48.79c1.094,0,2.188,0,3.281,0
		c0.306-2.492-0.265-4.11-2.188-4.375C63.635,45.895,62.42,46.505,62.885,48.79z M62.885,53.167c1.094,0,2.188,0,3.281,0
		c0-1.095,0-2.189,0-3.283c-1.094,0-2.188,0-3.281,0C62.885,50.978,62.885,52.072,62.885,53.167z M65.072,58.636
		c0.344-1.481,1.558-2.089,1.094-4.375c-1.094,0-2.188,0-3.281,0C62.579,56.754,63.148,58.371,65.072,58.636z"/>
</g>
</svg>
