<?xml version="1.0" encoding="utf-8"?>
<!-- Generator: Adobe Illustrator 15.0.2, SVG Export Plug-In . SVG Version: 6.00 Build 0)  -->
<svg version="1.2" baseProfile="tiny" id="Layer_1" xmlns="http://www.w3.org/2000/svg" xmlns:xlink="http://www.w3.org/1999/xlink"
	 x="0px" y="0px" width="100px" height="100px" viewBox="0 0 100 100" xml:space="preserve">
<polyline fill="#96D970" points="100,0 100,100 0,100 0,0 "/>
<g id="layer1" transform="translate(-42.339286,-276.34171)" inkscape:label="Layer 1" inkscape:groupmode="layer">
	<path id="rect2391" sodipodi:nodetypes="cccccccccccccccccc" fill="#FFFFFF" stroke="#FFFFFF" stroke-miterlimit="10" d="
		M109.447,326.903L109.447,326.903z M109.447,326.903l-17.549-15.542L74.339,326.91v22.217c0,0.573,0.464,1.034,1.037,1.034h10.975
		v-9.741c0-0.574,0.46-1.038,1.033-1.038h9.018c0.573,0,1.033,0.464,1.033,1.038v9.741h10.978c0.573,0,1.034-0.461,1.034-1.034
		V326.903z M74.339,326.91L74.339,326.91z"/>
	<path id="path2399" fill="#FFFFFF" stroke="#FFFFFF" stroke-miterlimit="10" d="M91.796,302.857l-24.903,22.05l2.623,2.96
		l22.382-19.82l22.377,19.82l2.618-2.96l-24.897-22.05l-0.098,0.112L91.796,302.857z"/>
	<path id="rect2404" sodipodi:nodetypes="ccccc" fill="#FFFFFF" stroke="#FFFFFF" stroke-miterlimit="10" d="M74.339,306.031h6.313
		l-0.055,3.738l-6.258,5.654V306.031z"/>
</g>
</svg>
