<?xml version="1.0" encoding="utf-8"?>
<!-- Generator: Adobe Illustrator 15.0.2, SVG Export Plug-In . SVG Version: 6.00 Build 0)  -->
<svg version="1.2" baseProfile="tiny" id="Layer_1" xmlns="http://www.w3.org/2000/svg" xmlns:xlink="http://www.w3.org/1999/xlink"
	 x="0px" y="0px" width="100px" height="100px" viewBox="0 0 100 100" xml:space="preserve">
<rect fill="#96D970" width="100" height="100"/>
<path fill="#96D970" d="M50.333,33.167"/>
<g id="Expanded">
	<g>
		<g>
			<path fill="#FFFFFF" d="M68,71.166H54v-13h-8v13H32v-21c0-0.553,0.447-1,1-1s1,0.447,1,1v19h10v-13h12v13h10v-18
				c0-0.553,0.447-1,1-1s1,0.447,1,1V71.166z"/>
		</g>
		<g>
			<path fill="#FFFFFF" d="M73,50.166c-0.25,0-0.498-0.092-0.691-0.277L50,28.55L27.691,49.889
				c-0.399,0.381-1.032,0.369-1.414-0.031c-0.383-0.398-0.367-1.031,0.031-1.414L50,25.783l23.691,22.661
				c0.396,0.382,0.412,1.015,0.031,1.414C73.525,50.063,73.264,50.166,73,50.166z"/>
		</g>
		<g>
			<path fill="#FFFFFF" d="M65,38.167c-0.553,0-1-0.448-1-1v-6h-6c-0.553,0-1-0.448-1-1s0.447-1,1-1h8v8
				C66,37.719,65.553,38.167,65,38.167z"/>
		</g>
	</g>
</g>
</svg>
