<?xml version="1.0" encoding="utf-8"?>
<!-- Generator: Adobe Illustrator 15.0.2, SVG Export Plug-In  -->
<!DOCTYPE svg PUBLIC "-//W3C//DTD SVG 1.1//EN" "http://www.w3.org/Graphics/SVG/1.1/DTD/svg11.dtd" [
	<!ENTITY ns_flows "http://ns.adobe.com/Flows/1.0/">
]>
<svg version="1.1"
	 xmlns="http://www.w3.org/2000/svg" xmlns:xlink="http://www.w3.org/1999/xlink" xmlns:a="http://ns.adobe.com/AdobeSVGViewerExtensions/3.0/"
	 x="0px" y="0px" width="100px" height="100px" viewBox="-3.694 -6.143 100 100" enable-background="new -3.694 -6.143 100 100"
	 xml:space="preserve">
<defs>
</defs>
<g>
	<polygon fill="#CCCCCC" points="40.747,82.911 40.883,44.983 3.43,39.142 3.43,39.142 3.43,39.142 89.43,3.602 89.43,3.602 
		89.43,3.602 40.747,82.911 40.747,82.911 	"/>
	<g>
		<path fill="#4D4D4D" d="M44.247,82.911c0.045-12.643,0.09-25.285,0.136-37.928c0.005-1.421-1.059-3.139-2.569-3.375
			c-12.484-1.947-24.969-3.894-37.453-5.841c0,2.25,0,4.5,0,6.75c28.667-11.847,57.333-23.693,86-35.54
			c-1.317-1.714-2.636-3.428-3.953-5.142C70.18,28.271,53.953,54.708,37.725,81.144c-2.369,3.858,3.688,7.372,6.044,3.533
			C59.997,58.241,76.225,31.804,92.453,5.368c1.48-2.413-1.018-6.354-3.953-5.142c-28.666,11.847-57.333,23.693-86,35.54
			c-2.762,1.142-3.859,6.148,0,6.75c12.484,1.947,24.969,3.894,37.453,5.841c-0.856-1.125-1.713-2.25-2.569-3.375
			c-0.045,12.643-0.09,25.285-0.136,37.928C37.231,87.425,44.231,87.424,44.247,82.911z"/>
	</g>
</g>
</svg>
