<?xml version="1.0" encoding="utf-8"?>
<!-- Generator: Adobe Illustrator 15.0.2, SVG Export Plug-In  -->
<!DOCTYPE svg PUBLIC "-//W3C//DTD SVG 1.1//EN" "http://www.w3.org/Graphics/SVG/1.1/DTD/svg11.dtd" [
	<!ENTITY ns_flows "http://ns.adobe.com/Flows/1.0/">
]>
<svg version="1.1"
	 xmlns="http://www.w3.org/2000/svg" xmlns:xlink="http://www.w3.org/1999/xlink" xmlns:a="http://ns.adobe.com/AdobeSVGViewerExtensions/3.0/"
	 x="0px" y="0px" width="32px" height="32px" viewBox="-5.259 -3 32 32" enable-background="new -5.259 -3 32 32"
	 xml:space="preserve">
<defs>
</defs>
<path fill="#FFFFFF" d="M21,3.12h-5.526V2.079c0-1.147-0.99-2.079-2.211-2.079H7.737c-1.221,0-2.21,0.932-2.21,2.079V3.12H0v1.04
	h1.139L2.245,23.92c0,1.151,0.989,2.08,2.21,2.08h12.157c1.222,0,2.211-0.929,2.211-2.08l1.088-19.761H21V3.12L21,3.12z
	 M6.631,2.079c0-0.574,0.496-1.039,1.105-1.039h5.526c0.609,0,1.104,0.465,1.104,1.039V3.12H6.631V2.079z M17.722,23.867
	l-0.002,0.024v0.026c0,0.573-0.496,1.041-1.107,1.041H4.456c-0.608,0-1.106-0.469-1.106-1.041v-0.026l-0.001-0.026L2.245,4.158
	h16.56L17.722,23.867z"/>
<rect x="9.948" y="4.678" fill="#FFFFFF" width="1.105" height="16.641"/>
<polygon fill="#FFFFFF" points="7.763,21.269 6.63,4.664 5.528,4.729 6.658,21.339 "/>
<polygon fill="#FFFFFF" points="15.479,4.714 14.378,4.647 13.263,21.289 14.366,21.353 "/>
</svg>
