<?xml version="1.0" encoding="utf-8"?>
<!-- Generator: Adobe Illustrator 15.0.2, SVG Export Plug-In  -->
<!DOCTYPE svg PUBLIC "-//W3C//DTD SVG 1.1//EN" "http://www.w3.org/Graphics/SVG/1.1/DTD/svg11.dtd" [
	<!ENTITY ns_flows "http://ns.adobe.com/Flows/1.0/">
]>
<svg version="1.1"
	 xmlns="http://www.w3.org/2000/svg" xmlns:xlink="http://www.w3.org/1999/xlink" xmlns:a="http://ns.adobe.com/AdobeSVGViewerExtensions/3.0/"
	 x="0px" y="0px" width="128px" height="128px" viewBox="-17.5 -1 128 128" enable-background="new -17.5 -1 128 128"
	 xml:space="preserve">
<defs>
</defs>
<g>
	<g>
		<path fill="#808080" d="M68,40.751c7.833,0,15.667,0,23.5,0c-0.5-0.5-1-1-1.5-1.5c0,28.25,0,56.499,0,84.749c0.5-0.5,1-1,1.5-1.5
			c-30,0-60,0-90,0c0.5,0.5,1,1,1.5,1.5c0-28.25,0-56.499,0-84.749c-0.5,0.5-1,1-1.5,1.5c8.833,0,17.667,0,26.5,0
			c1.935,0,1.935-3,0-3c-8.833,0-17.667,0-26.5,0c-0.818,0-1.5,0.682-1.5,1.5C0,67.501,0,95.75,0,124c0,0.817,0.682,1.5,1.5,1.5
			c30,0,60,0,90,0c0.817,0,1.5-0.683,1.5-1.5c0-28.25,0-56.499,0-84.749c0-0.818-0.683-1.5-1.5-1.5c-7.833,0-15.667,0-23.5,0
			C66.065,37.751,66.065,40.751,68,40.751L68,40.751z"/>
	</g>
</g>
<g>
	<g>
		<path fill="#808080" d="M27.245,20.727C34.017,14.838,40.789,8.95,47.561,3.061c1.463-1.271-0.668-3.384-2.121-2.121
			c-6.772,5.889-13.544,11.777-20.315,17.667C23.662,19.877,25.792,21.99,27.245,20.727L27.245,20.727z"/>
	</g>
</g>
<g>
	<g>
		<path fill="#808080" d="M67.745,19.606C61.017,13.384,54.289,7.162,47.561,0.939c-1.417-1.311-3.544,0.805-2.121,2.121
			c6.729,6.222,13.456,12.444,20.185,18.667C67.042,23.038,69.168,20.922,67.745,19.606L67.745,19.606z"/>
	</g>
</g>
<g>
	<g>
		<path fill="#808080" d="M45,4.999C45,29.333,45,53.667,45,78c0,1.935,3,1.935,3,0c0-24.333,0-48.667,0-73.001
			C48,3.064,45,3.064,45,4.999L45,4.999z"/>
	</g>
</g>
<g>
	<path fill="#808080" d="M46.5,7.031c-0.417-0.293-0.712-0.586-1.01-0.879c0.02-0.293,0.005-0.586,0.01-0.879V3.516V1.758V0.879
		c0.304-0.293,0.599-0.586,1-0.879c0.401,0.293,0.696,0.586,1,0.879v0.879v1.758v1.758c0.005,0.293-0.01,0.586,0.01,0.879
		C47.212,6.445,46.917,6.738,46.5,7.031z"/>
</g>
</svg>
